subject_08
version=1
nRows=357
nColumns=3
inDegrees=yes
endheader
time	r_shoulder_elev	r_elbow_flex
75.2800	14.125529	97.754700
75.2900	14.125529	97.128576
75.3000	14.125529	96.151091
75.3100	14.125529	95.144841
75.3200	14.125529	94.464958
75.3300	14.125529	94.380238
75.3400	14.125529	94.977242
75.3500	14.125529	96.122979
75.3600	14.125529	97.501963
75.3700	14.125529	98.717003
75.3800	14.125529	99.419824
75.3900	14.125529	99.426282
75.4000	14.125529	98.775924
75.4100	14.125529	97.715326
75.4200	14.125529	96.611786
75.4300	14.125529	95.828508
75.4400	14.125529	95.605466
75.4500	14.125529	95.986951
75.4600	14.125529	96.818936
75.4700	14.125529	97.813781
75.4800	14.125529	98.656011
75.4900	14.125529	99.109739
75.5000	14.125529	99.090039
75.5100	14.125529	98.675981
75.5200	14.125529	98.065604
75.5300	14.125529	97.494066
75.5400	14.125529	97.147839
75.5500	14.125529	97.106326
75.5600	14.125529	97.329190
75.5700	14.125529	97.688831
75.5800	14.125529	98.030492
75.5900	14.125529	98.233906
75.6000	14.125529	98.252691
75.6100	14.125529	98.119229
75.6200	14.125529	97.917843
75.6300	14.125529	97.741560
75.6400	14.125529	97.652537
75.6500	14.125529	97.662184
75.6600	14.125529	97.736621
75.6700	14.125529	97.821305
75.6800	14.125529	97.870846
75.6900	14.125529	97.869226
75.7000	14.125529	97.831711
75.7100	14.125529	97.789546
75.7200	14.125529	97.767078
75.7300	14.125529	97.764410
75.7400	14.125529	97.755450
75.7500	14.125529	97.703263
75.7600	14.125529	97.584851
75.7700	14.125529	97.412176
75.7800	14.125529	97.237001
75.7900	14.125529	97.134308
75.8000	14.125529	97.169421
75.8100	14.125529	97.362839
75.8200	14.125529	97.669686
75.8300	14.125529	97.985866
75.8400	14.125529	98.182100
75.8500	14.125529	98.154416
75.8600	14.125529	97.871068
75.8700	14.125529	97.395245
75.8800	14.125529	96.871343
75.8900	14.125529	96.476866
75.9000	14.125529	96.356606
75.9100	14.125529	96.564362
75.9200	14.125529	97.036146
75.9300	14.125529	97.607486
75.9400	14.125529	98.070351
75.9500	14.125529	98.249963
75.9600	14.125529	98.071559
75.9700	14.125529	97.590808
75.9800	14.125529	96.975014
75.9900	14.125529	96.441104
76.0000	14.125529	96.173571
76.0100	14.125529	96.253908
76.0200	14.125529	96.629126
76.0300	14.125529	97.132076
76.0400	14.125529	97.546089
76.0500	14.125529	97.689062
76.0600	14.125529	97.484229
76.0700	14.125529	96.989917
76.0800	14.125529	96.376509
76.0900	14.125529	95.859510
76.1000	14.125529	95.614832
76.1100	14.125529	95.709399
76.1200	14.125529	96.074188
76.1300	14.125529	96.530211
76.1400	14.125529	96.857253
76.1500	14.125529	96.878616
76.1600	14.125529	96.529011
76.1700	14.125529	95.879539
76.1800	14.125529	95.110519
76.1900	14.125529	94.443110
76.2000	14.125529	94.056348
76.2100	14.125529	94.021350
76.2200	14.125529	94.277230
76.2300	14.125529	94.656781
76.2400	14.125529	94.950847
76.2500	14.125529	94.985932
76.2600	14.125529	94.685448
76.2700	14.125529	94.092333
76.2800	14.125529	93.346340
76.2900	14.125529	92.626817
76.3000	14.125529	92.084374
76.3100	14.125529	91.787853
76.3200	14.125529	91.705741
76.3300	14.125529	91.726842
76.3400	14.125529	91.709657
76.3500	14.125529	91.539480
76.3600	14.125529	91.170531
76.3700	14.125529	90.637733
76.3800	14.125529	90.035606
76.3900	14.125529	89.474861
76.4000	14.125529	89.035430
76.4100	14.125529	88.734922
76.4200	14.125529	88.524266
76.4300	14.125529	88.310773
76.4400	14.125529	87.997968
76.4500	14.125529	87.525441
76.4600	14.125529	86.892922
76.4700	14.125529	86.159797
76.4800	14.125529	85.421422
76.4900	14.125529	84.772480
76.5000	14.125529	84.272006
76.5100	14.125529	83.923135
76.5200	14.125529	83.674143
76.5300	14.125529	83.438917
76.5400	14.125529	83.127954
76.5500	14.125529	82.677978
76.5600	14.125529	82.069949
76.5700	14.125529	81.330583
76.5800	14.125529	80.518925
76.5900	14.125529	79.704585
76.6000	14.125529	78.946069
76.6100	14.125529	78.276229
76.6200	14.125529	77.698033
76.6300	14.125529	77.189756
76.6400	14.125529	76.715753
76.6500	14.125529	76.238161
76.6600	14.125529	75.726009
76.6700	14.125529	75.160190
76.6800	14.125529	74.534639
76.6900	14.125529	73.854907
76.7000	14.125529	73.135226
76.7100	14.125529	72.394605
76.7200	14.125529	71.652120
76.7300	14.125529	70.921876
76.7400	14.125529	70.208843
76.7500	14.125529	69.507334
76.7600	14.125529	68.803654
76.7700	14.125529	68.082998
76.7800	14.125529	67.338557
76.7900	14.125529	66.578946
76.8000	14.125529	65.829679
76.8100	14.125529	65.126091
76.8200	14.125529	64.498669
76.8300	14.125529	63.955681
76.8400	14.125529	63.470633
76.8500	14.125529	62.981707
76.8600	14.125529	62.406582
76.8700	14.125529	61.669950
76.8800	14.125529	60.734895
76.8900	14.125529	59.625945
76.9000	14.125529	58.432817
76.9100	14.125529	57.289980
76.9200	14.125529	56.336140
76.9300	14.125529	55.666308
76.9400	14.125529	55.293613
76.9500	14.125529	55.136208
76.9600	14.125529	55.036530
76.9700	14.125529	54.808615
76.9800	14.125529	54.298276
76.9900	14.125529	53.435235
77.0000	14.125529	52.258240
77.0100	14.125529	50.903435
77.0200	14.125529	49.559554
77.0300	14.125529	48.405771
77.0400	14.125529	47.554499
77.0500	14.125529	47.019429
77.0600	14.125529	46.719336
77.0700	14.125529	46.514439
77.0800	14.125529	46.259841
77.0900	14.125529	45.854697
77.1000	14.125529	45.268567
77.1100	14.125529	44.536702
77.1200	14.125529	43.729386
77.1300	14.125529	42.911281
77.1400	14.125529	42.110394
77.1500	14.125529	41.311170
77.1600	14.125529	40.474506
77.1700	14.125529	39.574356
77.1800	14.125529	38.631796
77.1900	14.125529	37.727292
77.2000	14.125529	36.980836
77.2100	14.125529	36.504199
77.2200	14.125529	36.343606
77.2300	14.125529	36.438276
77.2400	14.125529	36.616809
77.2500	14.125529	36.639779
77.2600	14.125529	36.278189
77.2700	14.125529	35.401045
77.2800	14.125529	34.038326
77.2900	14.125529	32.391722
77.3000	14.125529	30.783272
77.3100	14.125529	29.555148
77.3200	14.125529	28.953553
77.3300	14.125529	29.038054
77.3400	14.125529	29.650798
77.3500	14.125529	30.459809
77.3600	14.125529	31.064119
77.3700	14.125529	31.125635
77.3800	14.125529	30.482013
77.3900	14.125529	29.200798
77.4000	14.125529	27.555583
77.4100	14.125529	25.932640
77.4200	14.125529	24.701125
77.4300	14.125529	24.092423
77.4400	14.125529	24.130140
77.4500	14.125529	24.633222
77.4600	14.125529	25.288102
77.4700	14.125529	25.761499
77.4800	14.125529	25.812404
77.4900	14.125529	25.364305
77.5000	14.125529	24.515164
77.5100	14.125529	23.486453
77.5200	14.125529	22.534334
77.5300	14.125529	21.857977
77.5400	14.125529	21.538121
77.5500	14.125529	21.524938
77.5600	14.125529	21.674268
77.5700	14.125529	21.813347
77.5800	14.125529	21.808028
77.5900	14.125529	21.605952
77.6000	14.125529	21.242312
77.6100	14.125529	20.810977
77.6200	14.125529	20.417165
77.6300	14.125529	20.133275
77.6400	14.125529	19.975536
77.6500	14.125529	19.908174
77.6600	14.125529	19.869263
77.6700	14.125529	19.803637
77.6800	14.125529	19.686863
77.6900	14.125529	19.530195
77.7000	14.125529	19.366530
77.7100	14.125529	19.226676
77.7200	14.125529	19.119458
77.7300	14.125529	19.026529
77.7400	14.125529	18.914732
77.7500	14.125529	18.759393
77.7600	14.125529	18.565741
77.7700	14.125529	18.375813
77.7800	14.125529	18.254828
77.7900	14.125529	18.261200
77.8000	14.125529	18.413265
77.8100	14.125529	18.669127
77.8200	14.125529	18.931698
77.8300	14.125529	19.080531
77.8400	14.125529	19.019753
77.8500	14.125529	18.722795
77.8600	14.125529	18.253846
77.8700	14.125529	17.754018
77.8800	14.125529	17.394208
77.8900	14.125529	17.310954
77.9000	14.125529	17.550059
77.9100	14.125529	18.041502
77.9200	14.125529	18.617967
77.9300	14.125529	19.072565
77.9400	14.125529	19.235165
77.9500	14.125529	19.037634
77.9600	14.125529	18.542686
77.9700	14.125529	17.923497
77.9800	14.125529	17.400437
77.9900	14.125529	17.158371
78.0000	14.125529	17.276274
78.0100	14.125529	17.696714
78.0200	14.125529	18.247661
78.0300	14.125529	18.708719
78.0400	14.125529	18.896380
78.0500	14.125529	18.735178
78.0600	14.125529	18.286876
78.0700	14.125529	17.726119
78.0800	14.125529	17.271902
78.0900	14.125529	17.101563
78.1000	14.125529	17.280942
78.1100	14.125529	17.738016
78.1200	14.125529	18.290341
78.1300	14.125529	18.715613
78.1400	14.125529	18.837914
78.1500	14.125529	18.595880
78.1600	14.125529	18.066750
78.1700	14.125529	17.437241
78.1800	14.125529	16.932818
78.1900	14.125529	16.732870
78.2000	14.125529	16.904300
78.2100	14.125529	17.378449
78.2200	14.125529	17.979171
78.2300	14.125529	18.490227
78.2400	14.125529	18.735513
78.2500	14.125529	18.641567
78.2600	14.125529	18.259578
78.2700	14.125529	17.740342
78.2800	14.125529	17.273720
78.2900	14.125529	17.017124
78.3000	14.125529	17.040502
78.3100	14.125529	17.307618
78.3200	14.125529	17.698457
78.3300	14.125529	18.061553
78.3400	14.125529	18.274212
78.3500	14.125529	18.286888
78.3600	14.125529	18.135640
78.3700	14.125529	17.920027
78.3800	14.125529	17.757547
78.3900	14.125529	17.734236
78.4000	14.125529	17.871333
78.4100	14.125529	18.120351
78.4200	14.125529	18.386861
78.4300	14.125529	18.571845
78.4400	14.125529	18.613154
78.4500	14.125529	18.510492
78.4600	14.125529	18.324785
78.4700	14.125529	18.153376
78.4800	14.125529	18.091836
78.4900	14.125529	18.197776
78.5000	14.125529	18.470330
78.5100	14.125529	18.852139
78.5200	14.125529	19.251685
78.5300	14.125529	19.576407
78.5400	14.125529	19.763824
78.5500	14.125529	19.799817
78.5600	14.125529	19.718958
78.5700	14.125529	19.588795
78.5800	14.125529	19.485428
78.5900	14.125529	19.469771
78.6000	14.125529	19.572189
78.6100	14.125529	19.789011
78.6200	14.125529	20.089727
78.6300	14.125529	20.430304
78.6400	14.125529	20.767136
78.6500	14.125529	21.067373
78.6600	14.125529	21.313818
78.6700	14.125529	21.504901
78.6800	14.125529	21.651491
78.6900	14.125529	21.772348
78.7000	14.125529	21.889270
78.7100	14.125529	22.022340
78.7200	14.125529	22.185514
78.7300	14.125529	22.383320
78.7400	14.125529	22.609905
78.7500	14.125529	22.851642
78.7600	14.125529	23.093369
78.7700	14.125529	23.326576
78.7800	14.125529	23.556170
78.7900	14.125529	23.802008
78.8000	14.125529	24.092820
78.8100	14.125529	24.453289
78.8200	14.125529	24.888651
78.8300	14.125529	25.373646
78.8400	14.125529	25.852351
